<svg version="1.2" xmlns="http://www.w3.org/2000/svg" viewBox="0 0 2464 2320" width="2464" height="2320">
	<defs>
		<linearGradient id="g1" x2="1" gradientUnits="userSpaceOnUse" gradientTransform="matrix(-2389.57,-3657.523,8549.276,-5585.5,2646.501,3869.565)">
			<stop offset="0" stop-color="#6ea8da"/>
			<stop offset="1" stop-color="#a7dbf6"/>
		</linearGradient>
		<linearGradient id="g2" x2="1" gradientUnits="userSpaceOnUse" gradientTransform="matrix(-1811.268,-2772.362,4101.34,-2679.529,989.463,2861.925)">
			<stop offset="0" stop-color="#6ea8da"/>
			<stop offset="1" stop-color="#a7dbf6"/>
		</linearGradient>
		<linearGradient id="g3" x2="1" gradientUnits="userSpaceOnUse" gradientTransform="matrix(518.612,0,0,169.544,797.374,1564.471)">
			<stop offset="0" stop-color="#f27342"/>
			<stop offset="1" stop-color="#ffd683"/>
		</linearGradient>
		<linearGradient id="g4" x2="1" gradientUnits="userSpaceOnUse" gradientTransform="matrix(1687.327,0,0,1548,561.975,402.102)">
			<stop offset="0" stop-color="#f27342"/>
			<stop offset="1" stop-color="#ffd683"/>
		</linearGradient>
		<linearGradient id="g5" x2="1" gradientUnits="userSpaceOnUse" gradientTransform="matrix(63.622,420.862,-284.387,42.991,1336.595,132.72)">
			<stop offset="0" stop-color="#f27342"/>
			<stop offset="1" stop-color="#ffd683"/>
		</linearGradient>
		<linearGradient id="g6" x2="1" gradientUnits="userSpaceOnUse" gradientTransform="matrix(700.988,0,0,238.939,562.808,704.576)">
			<stop offset="0" stop-color="#f27342"/>
			<stop offset="1" stop-color="#ffd683"/>
		</linearGradient>
		<linearGradient id="g7" x2="1" gradientUnits="userSpaceOnUse" gradientTransform="matrix(62.194,411.417,-231.823,35.045,1007.867,218.035)">
			<stop offset="0" stop-color="#f27342"/>
			<stop offset="1" stop-color="#ffd683"/>
		</linearGradient>
		<linearGradient id="g8" x2="1" gradientUnits="userSpaceOnUse" gradientTransform="matrix(136.428,682.163,-906.059,181.206,1091.023,378.95)">
			<stop offset="0" stop-color="#f27342"/>
			<stop offset="1" stop-color="#ffd683"/>
		</linearGradient>
		<linearGradient id="g9" x2="1" gradientUnits="userSpaceOnUse" gradientTransform="matrix(-584.414,-892.565,655.09,-428.925,1190.244,2451.637)">
			<stop offset="0" stop-color="#f68f54"/>
			<stop offset="1" stop-color="#ffd683"/>
		</linearGradient>
		<linearGradient id="g10" x2="1" gradientUnits="userSpaceOnUse" gradientTransform="matrix(-21.153,539.406,-100.281,-3.933,3206.925,1212.003)">
			<stop offset="0" stop-color="#f27342"/>
			<stop offset="1" stop-color="#ffd683"/>
		</linearGradient>
		<linearGradient id="g11" x2="1" gradientUnits="userSpaceOnUse" gradientTransform="matrix(-26.775,682.772,-181.868,-7.132,3158.102,1157.862)">
			<stop offset="0" stop-color="#f27342"/>
			<stop offset="1" stop-color="#ffd683"/>
		</linearGradient>
		<linearGradient id="g12" x2="1" gradientUnits="userSpaceOnUse" gradientTransform="matrix(0,728.05,-519.579,0,2261.418,929.505)">
			<stop offset="0" stop-color="#f27342"/>
			<stop offset="1" stop-color="#ffd683"/>
		</linearGradient>
		<linearGradient id="g13" x2="1" gradientUnits="userSpaceOnUse" gradientTransform="matrix(390.808,0,0,580.948,1858.468,1052.339)">
			<stop offset="0" stop-color="#f27342"/>
			<stop offset="1" stop-color="#ffd683"/>
		</linearGradient>
		<linearGradient id="g14" x2="1" gradientUnits="userSpaceOnUse" gradientTransform="matrix(126.06,0,0,87.076,797.374,1646.938)">
			<stop offset="0" stop-color="#f27342"/>
			<stop offset="1" stop-color="#ffd683"/>
		</linearGradient>
		<linearGradient id="g15" x2="1" gradientUnits="userSpaceOnUse" gradientTransform="matrix(92.102,347.697,-123.014,32.585,2033.254,1103.878)">
			<stop offset="0" stop-color="#f27342"/>
			<stop offset="1" stop-color="#ffd683"/>
		</linearGradient>
		<linearGradient id="g16" x2="1" gradientUnits="userSpaceOnUse" gradientTransform="matrix(-143.594,904.645,-413.026,-65.56,3026.037,1428.578)">
			<stop offset="0" stop-color="#f27342"/>
			<stop offset="1" stop-color="#ffd683"/>
		</linearGradient>
		<linearGradient id="g17" x2="1" gradientUnits="userSpaceOnUse" gradientTransform="matrix(-301.411,350.17,-116.277,-100.086,2542.512,1467.1)">
			<stop offset="0" stop-color="#f68f54"/>
			<stop offset="1" stop-color="#ffd683"/>
		</linearGradient>
		<linearGradient id="g18" x2="1" gradientUnits="userSpaceOnUse" gradientTransform="matrix(-40.366,470.934,-137.687,-11.802,2024.395,1286.231)">
			<stop offset="0" stop-color="#f27342"/>
			<stop offset="1" stop-color="#ffd683"/>
		</linearGradient>
		<linearGradient id="g19" x2="1" gradientUnits="userSpaceOnUse" gradientTransform="matrix(-147.344,525.582,-530.522,-148.729,1423.638,1904.54)">
			<stop offset="0" stop-color="#c2e6ef"/>
			<stop offset="1" stop-color="#a5d4f1"/>
		</linearGradient>
		<linearGradient id="g20" x2="1" gradientUnits="userSpaceOnUse" gradientTransform="matrix(80.159,-446.601,427.042,76.648,1073.004,2234.153)">
			<stop offset="0" stop-color="#d2edf6"/>
			<stop offset="1" stop-color="#fffdf5"/>
		</linearGradient>
		<linearGradient id="g21" x2="1" gradientUnits="userSpaceOnUse" gradientTransform="matrix(-1352.516,-2070.188,2070.172,-1352.506,1484.77,2665.211)">
			<stop offset="0" stop-color="#6ea8da"/>
			<stop offset="1" stop-color="#a7dbf6"/>
		</linearGradient>
		<linearGradient id="g22" x2="1" gradientUnits="userSpaceOnUse" gradientTransform="matrix(-46.976,-71.902,71.903,-46.976,1227.057,336.251)">
			<stop offset="0" stop-color="#6ea8da"/>
			<stop offset="1" stop-color="#a7dbf6"/>
		</linearGradient>
		<linearGradient id="g23" x2="1" gradientUnits="userSpaceOnUse" gradientTransform="matrix(0,114.578,-49.707,0,2056.146,1492.025)">
			<stop offset="0" stop-color="#f27342"/>
			<stop offset="1" stop-color="#ffd683"/>
		</linearGradient>
	</defs>
	<style>
		.s0 { fill: url(#g1) } 
		.s1 { fill: url(#g2) } 
		.s2 { fill: #164455 } 
		.s3 { opacity: .5;mix-blend-mode: multiply;fill: #65b7e6 } 
		.s4 { fill: url(#g3) } 
		.s5 { fill: url(#g4) } 
		.s6 { fill: url(#g5) } 
		.s7 { opacity: .5;mix-blend-mode: multiply;fill: url(#g6) } 
		.s8 { fill: url(#g7) } 
		.s9 { fill: #c37151 } 
		.s10 { fill: url(#g8) } 
		.s11 { fill: #fdcf9d } 
		.s12 { fill: url(#g9) } 
		.s13 { fill: #ffd196 } 
		.s14 { opacity: .5;mix-blend-mode: multiply;fill: url(#g10) } 
		.s15 { fill: none;stroke: #3b2314;stroke-linecap: round;stroke-linejoin: round;stroke-width: 5.3 } 
		.s16 { fill: #ec9e69 } 
		.s17 { fill: #ffffff } 
		.s18 { fill: #3a2511 } 
		.s19 { fill: #6b4028 } 
		.s20 { fill: #3b2314 } 
		.s21 { fill: url(#g11) } 
		.s22 { fill: url(#g12) } 
		.s23 { fill: #e9f6fd } 
		.s24 { fill: url(#g13) } 
		.s25 { opacity: .5;mix-blend-mode: multiply;fill: url(#g14) } 
		.s26 { opacity: .5;mix-blend-mode: multiply;fill: url(#g15) } 
		.s27 { opacity: .7;mix-blend-mode: multiply;fill: url(#g16) } 
		.s28 { fill: url(#g17) } 
		.s29 { fill: #ce6b51 } 
		.s30 { fill: url(#g18) } 
		.s31 { fill: #174456 } 
		.s32 { fill: url(#g19) } 
		.s33 { fill: url(#g20) } 
		.s34 { fill: url(#g21) } 
		.s35 { fill: url(#g22) } 
		.s36 { opacity: .5;mix-blend-mode: multiply;fill: url(#g23) } 
	</style>
	<g id="Graphic Template">
		<g id="Health checkup">
			<g id="&lt;Group&gt;">
				<path id="&lt;Path&gt;" class="s0" d="m953.61 564.12c77.27-70.53 194.67-225.51 169.39-338.73-25.28-113.21-88.63-79.81-194.19-24.13-105.57 55.67-564.37 288.86-516.72 384.17 101.61 203.25 464.25 49.21 541.52-21.31z"/>
				<path id="&lt;Path&gt;" class="s1" d="m1655.9 1747.14c-34.74 20.09-71.56 39.76-110.53 58.92-83.42 41.05-166.38 74.92-247.87 100.84-2.2 0.74-4.46 1.47-6.66 2.12-12.55 3.95-25.05 7.72-37.55 11.25-42.43 12.09-84.43 21.98-125.8 29.51-152.17 27.9-296.26 24.45-424.95-15.35-37.09-11.4-72.94-25.92-107.32-43.52 0 0 0 0-0.05-0.05-0.59-0.32-1.19-0.6-1.79-0.92-136.27-70.41-249.61-190.41-329.03-367.59-224.29-500.38 365.62-751.23 585.13-806.71 403.35-101.94 479.23-531.44 788.96-500.88 304.17 29.97 1018.17 954.24 17.46 1532.38z"/>
				<g id="&lt;Group&gt;">
					<path id="&lt;Path&gt;" class="s2" d="m923.77 610.59c-14.81 11.6-31.41 24.64-44.69 35.06-13.72 0.98-31.23 5.07-50.49 16.02-43.76 24.98-103.95 90.99-142.35 263.77-50.79 228.66-57.18 279.39-57.82 290.28 1.79 6.68 0 14.13-5.25 19.37-3.86 3.93-9.16 5.94-14.46 5.94-3.35 0-6.68-0.81-9.75-2.47-14.99-8.25-12.52-22.61-5.19-65.32 8.64-50.62 26.53-136.93 53.1-256.56 33.67-151.41 88.62-249.28 163.26-290.92 59.87-33.38 109.83-16.6 111.92-15.85q0.86 0.24 1.72 0.68z"/>
				</g>
				<path id="&lt;Path&gt;" class="s3" d="m1527.4 1753.35c-9.19 4.59-89.63 41.36-89.63 41.36 0 0-66.64 4.6-79.55-24.13-12.96-28.72 10.61-54 10.61-54l-137.88 16.08-6.89 121.8 73.44 52.44 6.99 5.01-13.65-2.89-30.02-6.3-7.53 17.55c-42.43 12.09-84.43 21.98-125.8 29.51-9.92-17.56-36.72-88.43-36.72-88.43l-13.79-50.55-170.05 9.19c0 0-20.69 25.28-41.37 59.75-20.68 34.47-39.07 39.06-75.83 50.55-19.08 5.98-56.03 5.75-87.19 4.14-37.09-11.4-72.94-25.92-107.32-43.52 0 0 0 0-0.05-0.05-1.7-2.3-2.8-4.55-3.08-6.53-2.29-16.08 11.49-20.68 11.49-20.68l110.31-36.77 73.54-22.98 20.68-128.69 204.53-124.09c0 0 576.8 71.24 592.89 78.13 16.09 6.9-68.94 119.5-78.13 124.1z"/>
				<g id="&lt;Group&gt;">
					<path id="&lt;Path&gt;" class="s2" d="m684.25 1768.56q-2.66 0-5.37-0.74c-10.73-2.94-17.05-14.05-14.1-24.78 0.9-3.32 90.08-333.8 4.68-451.89-17.64-24.38-41.43-37.01-72.75-38.62-17.09-0.84-32.27 5.36-46.5 19.04-80.87 77.89-95.08 359.99-93.72 462.11 0.15 11.15-8.74 20.3-19.91 20.46-10.95 0.25-20.28-8.75-20.44-19.92-0.19-15.69-3.91-385.78 106.09-491.71 22.38-21.56 48.13-31.84 76.56-30.29 43.7 2.24 78.47 20.86 103.37 55.31 96.68 133.71 5.46 471.85 1.54 486.17-2.48 8.97-10.6 14.86-19.45 14.86z"/>
				</g>
				<path id="&lt;Path&gt;" class="s4" d="m1315.99 1607.68l-79.79 119.69-326.06 4.92-112.77 1.72 13.3-29.92c0 0 0 0 26.6-36.56 19.42-26.73 63.76-21.48 86.16-16.76 8.26 1.8 13.57 3.46 13.57 3.46l109.71-89.76z"/>
				<path id="&lt;Path&gt;" class="s5" d="m2226.88 1135.62c-36.57 9.97-113.03 46.54-113.03 99.73 0 53.19 33.24 236.04-26.6 295.88-34.37 34.37-106.11 63.29-160.83 81.65-32.12 10.76-58.38 17.88-67.95 20.41-2.53 0.66-3.93 0.99-3.93 0.99 0 0-2.06 6.25-5.52 16.09-5.58 15.83-14.76 40.96-24.47 63.96-10.56 25.07-21.8 47.61-29.85 52.93-1.46 0.99-4.85 2.06-10.04 3.39-6.05 1.46-14.36 3.19-24.6 4.98-59.3 10.64-181.37 26.27-273.4 37.5-26.59 3.27-50.73 6.12-70.08 8.45-29.05 3.39-47.4 5.52-47.4 5.52 0 0-36.57-93.09 26.59-106.38 30.25-6.39 48.33-14.3 58.92-20.81 11.49-7.05 14.22-12.44 14.22-12.44l-212.76 6.65v136.3c0 0 53.19 6.65 59.84 49.87 6.64 43.22 6.64 66.49 6.64 66.49l-166.22 3.32-30.92-253.78-2.32-18.82c0 0-69.82 0-129.65 3.32-21.08 1.2-46.21-2.19-70.02-6.97-43.81-8.98-82.9-22.94-82.9-22.94 0 0-14.76-23.67-37.51-50.14-19.41-22.74-44.75-47.47-71.67-60.97 4.25-7.31 7.58-12.96 9.78-16.75 1.92-3.33 2.98-5.12 2.98-5.12 0 0-0.52-7.19-1.45-19.49-2.87-37.36-9.11-121.4-13.71-191.08-0.33-5.85-0.72-11.63-1.06-17.22v-0.07c-0.86-12.83-1.6-24.93-2.26-35.84-0.67-0.99-1.26-1.92-1.86-2.92-7.38-11.7-13.43-23.87-18.55-36.17q-6.16-14.96-10.44-30.12c-6.78-23.53-10.37-47.01-11.97-68.75v-0.06c-2.33-30.06-1-56.79 0.87-75.53-0.07-0.21-0.2-0.4-0.27-0.6v-0.07c-18.08-41.49-20.28-76.86-17.22-103.26 0.74-6.58 1.8-12.63 3-18.02 4.72-20.74 11.76-32.44 11.76-32.44l-0.27-0.07c-5.37-1.6-92.28-27.86-106.11-49.8-6.45-10.24-10.3-23.07-11.83-37.76-12.3-114.09 112.3-342.82 221.27-381.12 73.27-25.72 164.22-18.47 241.29 15.56 52.26 23.07 98.13 58.45 127.72 104.13 54.79 84.63 75.99 133.83 87.36 169.94 3.86 12.17 6.52 22.8 9.05 32.84 9.97 39.9-26.6 56.52-26.6 56.52 0 0 5.38 1.53 13.56 3.92 4.53 1.33 9.91 2.93 15.76 4.66 3.73 1.06 7.65 2.19 11.58 3.39 2.52 0.79 5.05 1.52 7.57 2.33 10.37 3.12 20.48 6.25 28.12 8.84 4.12 1.33 7.52 2.52 9.85 3.46 1.46 0.59 5.99 1.66 13.03 3.32 13.5 3.12 36.3 8.11 64.95 15.29 15.76 3.92 33.32 8.44 52 13.7 12.1 3.39 24.74 7.05 37.7 11.04 16.36 4.98 33.31 10.43 50.47 16.42 23.4 8.04 47.27 17.09 70.74 26.99 90.75 38.36 176.13 90.63 209.77 159.24 83.11 169.55 63.17 428.85 63.17 428.85 0 0 37.49-4.98 74.92-21.87 23.61-10.64 47.21-26.07 61.37-47.94 36.58-56.52 9.98-242.69 26.6-289.23 16.62-46.54 132.97-89.76 176.2-86.43 43.21 3.32 53.18 73.14 16.62 83.11z"/>
				<path id="&lt;Path&gt;" class="s6" d="m1222.9 630.31c-0.39 1.86-0.87 3.66-1.26 5.38-8.71 38.7-8.71 47.81-8.71 47.81l-23.27 3.32c0 0-96.41-109.7-106.39-113.03-9.96-3.32-73.13-132.97-73.13-132.97 0 0 113.03-66.49 179.52-86.44 10.44-3.13 18.68 0.47 25.06 8.91 34.45 45.28 16.56 230.59 8.18 267.02z"/>
				<path id="&lt;Path&gt;" class="s7" d="m1263.8 808.5c-67.03 54.19-161.91 117.62-296.88 130.98-130.91 12.97-245.35-8.31-297.66-20.75 4.72-20.74 11.76-32.44 11.76-32.44l-0.27-0.07c-5.37-1.6-92.28-27.86-106.11-49.8-6.45-10.24-10.3-23.07-11.83-37.76 48.99-14.3 143.94-35.11 182.5-49.8 46.55-17.69 423.27-44.28 432.18-44.28 3.2 0 31.31 0 62.96 2.59 3.86 12.17 6.52 22.8 9.05 32.84 9.97 39.9-26.6 56.52-26.6 56.52 0 0 5.38 1.53 13.56 3.92 7.46 2.19 17.23 5.06 27.34 8.05z"/>
				<path id="&lt;Path&gt;" class="s8" d="m760.81 454.11l-19.95 129.66-29.92 99.73-116.82 30.45c-1.93-6.65-4.05-18.48-6.31-33.91-13.17-92.55-27.87-315.22 3.45-332.31 1.86-1 3.92-1.66 6.26-1.92 43.41-5.59 163.29 108.3 163.29 108.3z"/>
				<g id="&lt;Group&gt;">
					<path id="&lt;Path&gt;" class="s9" d="m1214.4 675.24c-0.62 1.8-121.15-157.96-121.15-157.96 0 0 3.33-13.3 39.89-69.81 27.79-43.02 65.3-72.54 81.58-84.18 34.45 45.28 15.95 263.7-0.32 311.95z"/>
				</g>
				<path id="&lt;Path&gt;" class="s9" d="m687.67 497.33c0 0-61.44 136.9-99.86 182.71-13.17-92.55-27.87-315.22 3.45-332.31 1.86-1 3.92-1.66 6.26-1.92 16.35 21.27 60.1 79.45 73.53 111.63 16.62 39.89 16.62 39.89 16.62 39.89z"/>
				<path id="&lt;Path&gt;" class="s10" d="m1222.9 808.89c0 0-31.98 34.64-127.13 64.57-11.03 3.52-22.93 7.11-35.76 10.84-142.16 41.48-301.67 27.25-357.91 20.21-13.5-1.73-21.08-3.06-21.08-3.06l-0.27-0.07c-5.37-1.66-92.28-28.72-106.11-51.33-11.17-18.35-14.56-44.61-11.76-75.26 9.7-109.04 96.8-274 184.63-336.83 12.23-8.78 24.54-15.56 36.57-19.95 5.45-1.99 10.97-3.79 16.62-5.32 12.9-3.72 26.26-6.38 39.9-8.11 17.35-2.26 35.23-2.93 53.19-2.13 11.03 0.47 22.14 1.46 33.24 3 17.88 2.52 35.7 6.44 53.18 11.7 15.43 4.65 30.52 10.3 45.16 16.95 52.26 23.74 98.13 60.24 127.72 107.38 33.24 52.93 54.12 92.49 67.95 123.74 16.62 37.43 23 62.89 28.46 85.37 9.97 41.15-26.6 58.3-26.6 58.3z"/>
				<g id="&lt;Group&gt;">
					<path id="&lt;Path&gt;" class="s11" d="m1222.9 808.89c0 0-31.98 34.64-127.13 64.57-11.03 3.52-22.93 7.11-35.76 10.84-142.16 41.48-301.67 27.25-357.91 20.21-13.5-1.73-21.08-3.06-21.08-3.06l-0.27-0.07c-5.37-1.66-92.28-28.72-106.11-51.33-11.17-18.35-14.56-44.61-11.76-75.26 34.83 13.43 102.45 32.25 164.68 7.31 88.63-35.44 64.3-55.38 135.18-55.38 70.94 0 33.24-6.65 95.34 13.29 62.04 19.95 130.71 44.35 172.87 22.15 29.66-15.63 71.74-70.16 92.55-99.48 16.62 37.43 19.96 50.58 26 72.9 14.41 53.19-26.6 73.31-26.6 73.31z"/>
				</g>
				<path id="&lt;Path&gt;" class="s12" d="m1784.66 1770.65c-6.05 1.46-14.36 3.19-24.6 4.98-102.26 18.36-390.88 51.47-390.88 51.47 0 0-36.57-93.09 26.59-106.38 30.25-6.39 48.33-14.3 58.92-20.81 11.49-7.05 14.22-12.44 14.22-12.44l-212.76 6.65v136.3c0 0 53.19 6.65 59.84 49.87 6.64 43.22 6.64 66.49 6.64 66.49l-166.22 3.32-15.95-131.18-14.97-122.6-2.32-18.82c0 0-4.72 0-12.83 0.07-22.94 0.13-72.6 0.8-116.82 3.25-59.84 3.33-152.92-29.91-152.92-29.91 0 0-51-81.98-109.18-111.11 4.25-7.31 7.58-12.96 9.78-16.75 1.92-3.33 2.98-5.12 2.98-5.12 0 0-0.52-7.19-1.45-19.49-2.87-37.36-9.11-121.4-13.71-191.08 17.96 9.58 38.43 21.08 38.43 21.08 0 0-99.73-252.66 76.47-289.23 176.2-36.57 269.28-19.95 305.85 76.46q2.3 6.09 4.51 12.17c6.06 16.29 11.71 32.58 17.42 48.27 0.07 0.07 0.07 0.2 0.07 0.27 26.67 73.47 53.33 135.43 110.97 135.43 73.14 0 89.76-116.35 236.03 9.98 146.28 126.32 166.23 109.7 272.61 355.71 14.09 32.58 10.5 63.76-6.72 93.15z"/>
				<g id="&lt;Group&gt;">
					<path id="&lt;Path&gt;" class="s13" d="m1095.77 873.48c-11.03 3.5-22.93 7.06-35.76 10.84-142.16 41.48-301.67 27.22-357.91 20.15l0.53-1.3c0 0 28.26-178.28 167.88-178.28 122.68 0 187.63 88.73 225.26 148.59z"/>
				</g>
				<path id="&lt;Path&gt;" class="s14" d="m1232.87 1515.73c0 73.14-15.48 70.88-24.4 106.38-8.84 35.44-13.29 108.58-22.14 141.83-8.17 30.64-40.82 51.86-45.87 54.98l-14.97-122.6-2.32-18.82c0 0-4.72 0-12.83 0.07 4.45-138.03 3.45-472.14 6.18-512.03 3.32-48.74 18.82-48.74 18.82-48.74l18.94 11.04 7.65 4.46c0 0 3.86 16.95 9.77 43.81 0.07 0.07 0.07 0.2 0.07 0.27 19.55 88.36 61.1 283.37 61.1 339.35z"/>
				<path id="&lt;Path&gt;" class="s15" d="m873.63 800.39c0 0 2.1 45.45-46.79 46.42-37 0.72-45.35-21.05-45.35-21.05"/>
				<path id="&lt;Path&gt;" class="s15" d="m873.99 800.37c0 0 2.45 45.44 51.18 41.52 36.91-2.96 43.03-25.46 43.03-25.46"/>
				<g id="&lt;Group&gt;">
					<path id="&lt;Path&gt;" class="s16" d="m836.42 777.87c4.66-16.04 43.72-13.28 66.07-9.96 22.36 3.33 8 37.88-20.77 39.32-28.78 1.44-50.3-12.09-45.3-29.36z"/>
				</g>
				<path id="&lt;Path&gt;" class="s17" d="m1006.16 597.76c5.05 2.95 9.21 6.77 12.47 11.21 9.54 12.96 11.08 30.88 2.46 45.64-7.73 13.25-21.74 20.63-36.1 20.57-7.1 0.01-14.25-1.85-20.74-5.65-0.41-0.23-0.86-0.49-1.23-0.79-18.86-11.87-25.03-36.64-13.7-56.05 4.96-8.5 12.44-14.59 21.03-17.81 11.34-4.4 24.49-3.73 35.81 2.88z"/>
				<path id="&lt;Path&gt;" class="s18" d="m1017.4 608.18c0.41 0.23 0.86 0.5 1.23 0.79 9.54 12.96 11.08 30.88 2.46 45.64-7.73 13.25-21.74 20.63-36.1 20.57-7.1 0.01-14.25-1.85-20.74-5.65-0.41-0.23-0.86-0.49-1.23-0.79-9.56-12.89-11.08-30.87-2.46-45.63 4.97-8.5 12.45-14.6 21.03-17.83 11.34-4.38 24.49-3.72 35.81 2.9z"/>
				<path id="&lt;Path&gt;" class="s17" d="m802 596.12c5.29 2.52 9.75 5.99 13.36 10.13 10.56 12.13 13.58 29.85 6.22 45.28-6.62 13.85-19.98 22.36-34.3 23.48-7.06 0.6-14.36-0.66-21.12-3.91-0.43-0.21-0.91-0.43-1.3-0.7-19.78-10.26-27.98-34.43-18.28-54.71 4.24-8.87 11.2-15.57 19.49-19.49 10.95-5.31 24.11-5.72 35.93-0.08z"/>
				<path id="&lt;Path&gt;" class="s18" d="m814.07 605.58c0.42 0.18 0.89 0.42 1.29 0.67 10.56 12.13 13.58 29.85 6.22 45.28-6.62 13.85-19.98 22.36-34.3 23.48-7.06 0.6-14.36-0.66-21.12-3.91-0.43-0.21-0.91-0.43-1.3-0.7-10.59-12.05-13.59-29.84-6.22-45.25 4.25-8.88 11.22-15.57 19.49-19.5 10.95-5.31 24.11-5.74 35.94-0.07z"/>
				<g id="&lt;Group&gt;">
					<path id="&lt;Path&gt;" class="s19" d="m893.79 402.45v169.15c0 14.69-11.91 26.59-26.6 26.59-14.69 0-26.59-11.9-26.59-26.59v-167.02c17.35-2.26 35.23-2.93 53.19-2.13z"/>
				</g>
				<g id="&lt;Group&gt;">
					<path id="&lt;Path&gt;" class="s19" d="m800.7 412.69v105.72c0 14.69-11.9 26.59-26.6 26.59-14.69 0-26.59-11.9-26.59-26.59v-80.45c12.23-8.78 24.54-15.56 36.57-19.95 5.45-1.99 10.97-3.79 16.62-5.32z"/>
				</g>
				<g id="&lt;Group&gt;">
					<path id="&lt;Path&gt;" class="s19" d="m980.21 417.15v114.56c0 14.69-11.89 26.59-26.59 26.59-14.69 0-26.59-11.9-26.59-26.59v-126.26c17.88 2.52 35.7 6.44 53.18 11.7z"/>
				</g>
				<g id="&lt;Group&gt;">
					<path id="&lt;Path&gt;" class="s20" d="m1527.49 882.9c-9.18 30.25-22.48 60.77-41.9 85.9l-56.51 73.14c-5.25 6.78-13.1 10.3-21.07 10.3-5.72 0-11.44-1.79-16.22-5.52-11.64-8.97-13.77-25.66-4.8-37.3l56.52-73.13c15.29-19.81 26-44.75 33.51-69.81 16.36 4.98 33.31 10.43 50.47 16.42z"/>
				</g>
				<path id="&lt;Path&gt;" class="s21" d="m1322.63 1946.78l-19.28 0.4-11.9 0.2-135.04 2.72-39.89-86.43 8.97-167.35c2.67-19.88 4.33-32.12 4.33-32.12l-13.3-498.66c0 0 17.28-105.45 93.74-102.13 61.71 2.66 89.1 9.05 89.1 235.11 0 226.06-43.21 395.6-43.21 395.6v136.3c0 0 39.95 4.99 54.98 34.51 2.26 4.52 3.99 9.64 4.86 15.36 0.06 0.59 0.2 1.2 0.26 1.8 6.38 42.08 6.38 64.69 6.38 64.69z"/>
				<path id="&lt;Path&gt;" class="s22" d="m1946.09 1476.11c-6.64 49.86-13.75 98.4-19.67 136.77-32.12 10.76-58.38 17.88-67.95 20.41-2.53 0.66-3.93 0.99-3.93 0.99 0 0-39.89 119.68-59.84 132.98-15.62 10.44-267.88 41.22-376.46 54.12q-6.29 0.7-11.9 1.4c-21.47 2.53-35.17 4.12-36.96 4.32q-0.2 0-0.2 0c0 0-5.19-13.23-8.25-30.46-1-5.51-1.79-11.43-2.06-17.41-0.13-2.8-0.4-5.66-0.67-8.65-1.66-23.4 0.61-50.73 96.49-70.67l99.53-13.57c0 0-79.79 0-203.86-110.77-124.13-110.83-13.3-478.71-13.3-478.71 0 0 30.99-88.7 132.97-146.28 41.29-23.33 87.64-35.04 128.2-40.69 15.23 6.45 30.31 13.3 45.01 20.48 16.82 8.31 33.18 17.09 48.68 26.46 44.4 26.73 82.17 57.91 105.64 93.95 3.86 5.99 7.38 12.1 10.44 18.35 7.24 14.76 13.7 30.19 19.41 46.08v0.07c20.42 56.18 31.99 117.88 38.44 175.12 2.72 24.21 4.51 47.61 5.64 69.42 4.2 79.65-0.32 138.16-0.32 138.16 0 0 37.49-4.98 74.92-21.87z"/>
				<g id="&lt;Group&gt;">
					<path id="&lt;Path&gt;" class="s20" d="m818.25 1273.98c0.94 14.7-10.24 27.26-24.86 28.19-2.6 0.14-5.19 0.27-7.78 0.27-20.42 0-39.89-4.92-57.65-12.3v-0.07c-0.86-12.83-1.6-24.93-2.26-35.84-8.18-12.56-14.88-25.72-20.41-39.09 21.41 17.02 52.8 35.84 84.78 33.91 14.49-0.93 27.32 10.3 28.18 24.93z"/>
				</g>
				<g id="&lt;Group&gt;">
					<path id="&lt;Path&gt;" class="s20" d="m880.49 1197.12c-1.93 13.23 3.05 28.26-9.98 28.26-1.19 0-2.46-0.07-3.78-0.27l-93.09-13.29c-26.93-3.86-53.79-13.97-78.79-26.8-6.78-23.53-10.37-47.01-11.97-68.75 29.66 19.88 64.63 38.03 98.34 42.89l93.09 13.3c14.49 2.06 8.24 10.1 6.18 24.66z"/>
				</g>
				<path id="&lt;Path&gt;" class="s23" d="m665 1738.76l39.41 14.42c0 0-12.5 84.56-32.68 121.07-16.61 30.08-108.62 18.13-86.46-41.32 18.25-49 58.6-11.53 58.6-11.53z"/>
				<path id="&lt;Path&gt;" class="s23" d="m415.73 1691.49l41.91 2.05c0 0 13.17 84.45 4.77 125.32-6.96 33.66-98.36 49.57-94.86-13.77 2.88-52.22 44.75-29.81 44.75-29.81z"/>
				<path id="&lt;Path&gt;" class="s24" d="m2247.48 1114.07c-2.91 10.31-9.7 18.56-20.6 21.55-36.57 9.97-113.03 46.54-113.03 99.73 0 53.19 33.24 236.04-26.6 295.88-35.5 35.5-110.83 65.15-166.16 83.43-29.64 9.78-53.58 16.23-62.62 18.63 3.25-14.96 5.78-34.78 7.64-54.59 3.86-40.29 5.06-80.72 5.06-80.72 0 0 17.21-2.26 39.95-9.04 19.23-5.65 42.36-14.5 62.44-27.86 7.84-5.19 15.15-11.04 21.61-17.68 4.58-4.66 8.77-9.78 12.29-15.23 18.75-28.92 20.88-91.89 20.75-152.59q-0.01-13.96-0.14-27.53c-0.26-29.78-0.53-57.58 1-78.85 0.93-12.7 2.46-23.14 4.99-30.26 1-2.79 2.33-5.58 3.99-8.31 12.37-20.27 42.02-39.43 74.33-53.72 8.18-3.59 16.55-6.91 24.87-9.91 28.59-10.1 56.32-15.75 73.01-14.49 30.31 2.33 44.27 37.43 37.22 61.56z"/>
				<path id="&lt;Path&gt;" class="s25" d="m923.43 1650.77c-0.59 13.5-1.59 27.73-3.05 40.03-1.6 13.36-5.65 28.06-10.24 41.49l-112.77 1.72 13.3-29.92c0 0 0 0 26.6-36.56 19.42-26.73 63.76-21.48 86.16-16.76z"/>
				<g id="&lt;Group&gt;">
					<path id="&lt;Path&gt;" class="s20" d="m1322.37 826.45c-8.31 41.69-23.67 89.63-51.8 126l-56.52 73.13c-5.25 6.79-13.15 10.31-21.07 10.31-5.72 0-11.43-1.8-16.29-5.52-11.57-9.04-13.75-25.73-4.78-37.37l56.51-73.14c23.4-30.31 36.1-72.47 42.95-109.03 15.89 4.78 31.25 9.64 37.97 12.3 1.46 0.59 5.99 1.66 13.03 3.32z"/>
				</g>
				<g id="&lt;Group&gt;">
					<path id="&lt;Path&gt;" class="s20" d="m1439.32 855.44c-7.78 18.41-17.48 36.16-29.59 51.79l-56.51 73.14c-5.25 6.78-13.1 10.31-21.08 10.31-5.65 0-11.44-1.8-16.22-5.59-11.64-8.98-13.76-25.66-4.79-37.3l56.51-73.14c7.65-9.9 14.17-21.07 19.68-32.91 15.76 3.92 33.32 8.44 52 13.7z"/>
				</g>
				<path id="&lt;Path&gt;" class="s26" d="m933.68 1489.14c0 71.54-3.86 133.44-10.18 184.71-43.81-8.98-82.9-22.94-82.9-22.94 0 0-14.76-23.67-37.51-50.14 3.86-138.16 10.91-386.49 10.91-386.49l15.49-46.54 46.54-46.55c0 0 57.65 234.97 57.65 367.95z"/>
				<path id="&lt;Path&gt;" class="s27" d="m1583.07 1551.17l-86.43 248.21-9.98 13.75c-26.59 3.27-50.73 6.12-70.08 8.45 52-66.42 112.5-229.65 119.95-352.39 8.84-146.27-287.29-663.55-287.29-663.55l2.98-0.53c3.73 1.06 7.65 2.19 11.58 3.39 2.52 0.79 5.05 1.52 7.57 2.33 10.37 3.12 20.48 6.25 28.12 8.84l44.22 48.86 195.01 407.84z"/>
				<g id="&lt;Group&gt;">
					<path id="&lt;Path&gt;" class="s20" d="m780.29 1050.85c-2.46 12.76-13.57 21.61-26.13 21.61-1.6 0-3.33-0.14-4.99-0.47-25.2-4.79-47.27-17.09-65.69-31.91v-0.07c-18.08-41.49-20.28-76.86-17.22-103.26 7.32 13.3 43.02 73.47 92.89 82.98 14.42 2.73 23.86 16.69 21.14 31.12z"/>
				</g>
				<g id="&lt;Group&gt;">
					<path id="&lt;Path&gt;" class="s20" d="m1691.92 956.83c-12.51 54.66-46.82 170.61-122.62 235.57-92.88 79.66-132.84 93.29-139.95 95.21-2.33 0.66-4.66 0.93-6.98 0.93-11.7 0-22.41-7.77-25.66-19.61-3.8-13.96 4.25-28.39 18.08-32.45 1.73-0.66 37.23-13.63 119.95-84.5 71.27-61.04 100.78-183.51 108.5-221.61 16.82 8.31 33.18 17.09 48.68 26.46z"/>
				</g>
				<g id="&lt;Group&gt;">
					<path id="&lt;Path&gt;" class="s20" d="m1827.41 1115.21v0.07c-20.6 45.67-45.14 95.14-65.15 120.07-41.29 51.67-88.77 89.16-90.76 90.76-4.85 3.79-10.64 5.65-16.42 5.65-7.85 0-15.7-3.46-20.96-10.17-9.03-11.57-7.04-28.26 4.54-37.37 0.39-0.33 44.74-35.37 82.1-82.11 21.75-27.19 53.87-97.21 76.8-151.33 3.86 5.99 7.38 12.1 10.44 18.35 7.24 14.76 13.7 30.19 19.41 46.08z"/>
				</g>
				<g id="&lt;Group&gt;">
					<path id="&lt;Path&gt;" class="s20" d="m1871.49 1359.82c-15.02 14.43-29.91 27.99-43.28 39.03-58.84 48.47-123.54 75.92-126.26 77.12-3.39 1.4-6.85 2.07-10.3 2.07-10.37 0-20.22-6.12-24.54-16.3-5.65-13.49 0.67-29.11 14.23-34.83 0.6-0.21 60.43-25.8 113.1-69.15 21.41-17.62 47.54-42.95 71.41-67.36 2.72 24.21 4.51 47.61 5.64 69.42z"/>
				</g>
				<g id="&lt;Group&gt;">
					<path id="&lt;Path&gt;" class="s20" d="m2161.72 1129.64c-2.4 1.79-5.19 2.66-7.98 2.66-4.06 0-8.05-1.87-10.64-5.32l-19.94-26.6c-4.99-6.65-8.45-14.76-10.78-23.47 8.18-3.59 16.55-6.91 24.87-9.91 1.53 6.85 3.79 12.9 7.17 17.42l19.95 26.6c4.4 5.85 3.2 14.23-2.65 18.62z"/>
				</g>
				<g id="&lt;Group&gt;">
					<path id="&lt;Path&gt;" class="s20" d="m2061.99 1190.94c-2.4 1.79-5.19 2.66-7.98 2.66-4.06 0-8.05-1.86-10.64-5.32l-14.3-19.08c0.93-12.7 2.46-23.14 4.99-30.26 1-2.79 2.33-5.58 3.99-8.31 1.53 5.92 3.66 11.11 6.65 15.1l19.94 26.59c4.39 5.85 3.2 14.23-2.65 18.62z"/>
				</g>
				<g id="&lt;Group&gt;">
					<path id="&lt;Path&gt;" class="s20" d="m2073.42 1272.85c-1.46 6.12-6.91 10.17-12.9 10.17-1.06 0-2.13-0.06-3.12-0.33l-29.19-7.11q-0.01-13.96-0.14-27.53 1.6 0.6 3.2 1l32.32 7.78c7.17 1.73 11.56 8.91 9.83 16.02z"/>
				</g>
				<g id="&lt;Group&gt;">
					<path id="&lt;Path&gt;" class="s20" d="m2014.71 1472.12c-2.59 3.92-6.85 6.05-11.16 6.05-2.47 0-5-0.73-7.25-2.2l-22.74-14.89c7.84-5.19 15.15-11.04 21.61-17.68l15.68 10.3c6.12 4.06 7.85 12.3 3.86 18.42z"/>
				</g>
				<path id="&lt;Path&gt;" class="s28" d="m2247.48 1114.07c-2.91 10.31-9.7 18.56-20.6 21.55-36.57 9.97-113.03 46.54-113.03 99.73 0 53.19 33.24 236.04-26.6 295.88-54.52 54.52-202.92 95.28-228.78 102.06 3.25-14.96 5.78-34.78 7.64-54.59 43.82-12.17 119.68-36.04 171.27-67.42 76.47-46.54 56.52-232.71 66.49-312.5 7.78-62.16 102.26-79.92 143.61-84.71z"/>
				<path id="&lt;Path&gt;" class="s29" d=""/>
				<path id="&lt;Path&gt;" class="s30" d="m904.68 1559.88l-69.81 295.88-41.89 44.74-116.22-1.13-11.83-0.13-27.33-0.26c0 0 0-26.6 17.76-75.34 17.74-48.8 75.33-44.35 75.33-44.35l-8.85-615.01c0 0 18.75-52.33 34.51-58.64 30.85-12.3 115.16-8.09 125.06 22.07 28.46 86.59 23.27 432.17 23.27 432.17z"/>
				<g id="&lt;Group&gt;">
					<path id="&lt;Path&gt;" class="s20" d="m1443.77 1758.22c-32.24 15.35-28.85 48.6-25.53 63.16q-6.29 0.7-11.9 1.4c-4.98-22.81-2.85-58.51 32.32-75.27 2.92-1.39 6.51-0.13 7.9 2.8 1.4 2.92 0.14 6.51-2.79 7.91z"/>
				</g>
				<g id="&lt;Group&gt;">
					<path id="&lt;Path&gt;" class="s20" d="m1406.41 1748.91c-1.67 2.06-4.46 2.66-6.79 1.73-1.39 0.2-8.3 1.99-24.53 17.95-9.11 8.97-12.89 19.21-14.16 28.05-1-5.51-1.79-11.43-2.06-17.41-0.13-2.8-0.4-5.66-0.67-8.65 2.33-3.59 5.13-7.05 8.58-10.43 23.54-23.21 34.11-23.48 38.83-19.62 2.53 2.13 2.86 5.85 0.8 8.38z"/>
				</g>
				<g id="&lt;Group&gt;">
					<g id="&lt;Group&gt;">
						<path id="&lt;Path&gt;" class="s20" d="m729.02 1823.77c0 3.27-2.59 5.92-5.85 5.92-1.46 0-34.03 0.93-34.03 45.08v15.89l-11.84-0.13v-15.76c0-56.25 45.35-56.91 45.81-56.91 3.32 0 5.91 2.65 5.91 5.91z"/>
					</g>
				</g>
				<g id="&lt;Group&gt;">
					<g id="&lt;Group&gt;">
						<path id="&lt;Path&gt;" class="s20" d="m1303.35 1947.18l-11.9 0.2q-0.2-5.19-0.2-10.57c0-25.74-41.35-33.98-41.75-34.05-3.2-0.66-5.32-3.72-4.72-6.98 0.59-3.19 3.72-5.32 6.91-4.72 2.14 0.47 51.39 10.24 51.39 45.75q-0.01 5.28 0.27 10.37z"/>
					</g>
				</g>
				<g id="&lt;Group&gt;">
					<g id="&lt;Group&gt;">
						<path id="&lt;Path&gt;" class="s20" d="m1316.25 1882.09c-20.08-15.83-44.68-18.95-46.41-19.22-3.25-0.33-5.58-3.33-5.18-6.52 0.39-3.25 3.26-5.58 6.58-5.18 0.4 0 19.94 2.53 39.89 13.76 2.26 4.52 3.99 9.64 4.86 15.36 0.06 0.59 0.2 1.2 0.26 1.8z"/>
					</g>
				</g>
				<g id="&lt;Group&gt;">
					<path id="&lt;Path&gt;" class="s31" d="m1594.7 1585.75c-88.03 369.07-300.26 440.35-309.23 443.21-1.99 0.66-4.06 0.93-6.05 0.93-8.45 0-16.3-5.39-19.02-13.89-3.32-10.51 2.46-21.75 12.96-25.07 1.93-0.6 200.14-69.02 282.52-414.5 67.49-282.77-291.42-766.6-291.42-766.6l-15.22-4.19c-0.14-15.09 37.66-19.08 72.59 14.96 17.95 17.48 344.82 463.55 272.87 765.15z"/>
				</g>
				<g id="&lt;Group&gt;">
					<path id="&lt;Path&gt;" class="s32" d="m1306.52 2117.87c-50.28 54.14-128.18 68.49-173.88 32.01q-0.18-0.14-0.35-0.28c-19.12-15.35-26.84-41.22-19.4-64.58 6.21-19.48 17.42-38.88 33.53-56.25 49.07-52.78 125.1-66.77 169.71-31.25q0.23 0.18 0.45 0.36c23.21 18.78 30.48 51.27 18.02 78.41-6.64 14.45-16.01 28.57-28.08 41.58z"/>
				</g>
				<g id="&lt;Group&gt;">
					<path id="&lt;Path&gt;" class="s33" d="m1261.06 1996.26c25.48 20.32 23.42 61.27-4.56 91.39-28.02 30.15-71.41 38.15-96.89 17.85-25.46-20.29-23.42-61.23 4.61-91.39 27.98-30.13 71.38-38.13 96.84-17.85z"/>
				</g>
				<path id="&lt;Path&gt;" class="s34" d="m401.77 755.53c0 34.27-27.78 62.05-62.05 62.05-34.28 0-62.06-27.78-62.06-62.05 0-34.27 27.78-62.05 62.06-62.05 34.27 0 62.05 27.78 62.05 62.05z"/>
				<path id="&lt;Path&gt;" class="s35" d="m1270.55 276.81c0 17.14-13.89 31.03-31.02 31.03-17.15 0-31.04-13.89-31.04-31.03 0-17.13 13.89-31.02 31.04-31.02 17.13 0 31.02 13.89 31.02 31.02z"/>
				<path id="&lt;Path&gt;" class="s36" d="m1921.09 1614.66c-29.64 9.78-53.58 16.23-62.62 18.63 3.25-14.96 5.78-34.78 7.64-54.59 3.86-40.29 5.06-80.72 5.06-80.72 0 0 17.21-2.26 39.95-9.04-11.63 30.52-24.07 83.91 8.78 124.27 0.4 0.46 0.8 0.99 1.19 1.45z"/>
			</g>
		</g>
	</g>
</svg>